<svg id="Capa_1" enable-background="new 0 0 501 501" height="512" viewBox="0 0 501 501" width="512" xmlns="http://www.w3.org/2000/svg"><path d="m5.5 256c0-135.134 109.405-244.715 244.472-244.999 135.316-.285 244.735 108.226 245.523 243.54.41 70.452-28.918 134.058-76.165 179.001-3.358 3.194-8.113 4.476-12.634 3.451-48.363-10.968-101.056-16.993-156.196-16.993-54.951 0-107.471 5.984-155.7 16.88-4.841 1.094-9.931-.28-13.52-3.709-46.693-44.61-75.78-107.494-75.78-177.171z" fill="#0ed1b2"/><path d="m360.5 162.333h-173.431c-58.856 0-106.569-47.713-106.569-106.569l286.2-55.393c12.341-2.389 23.8 7.065 23.8 19.636v112.327c0 16.568-13.431 29.999-30 29.999z" fill="#006e66"/><path d="m420.5 158.368v274.055c-44.057 42.463-103.979 68.577-170 68.577s-125.943-26.114-170-68.577v-376.659l308.066 63.425c18.592 3.829 31.934 20.197 31.934 39.179z" fill="#fdf061"/><path d="m124.5 466.159c-15.935-9.574-30.691-20.909-44-33.736v-376.659l44 9.059z" fill="#f1ca50"/><path d="m384.5 370c0 5.523-4.477 10-10 10h-160c-5.523 0-10-4.477-10-10 0-5.523 4.477-10 10-10h160c5.523 0 10 4.477 10 10zm-10 30h-160c-5.523 0-10 4.477-10 10s4.477 10 10 10h160c5.523 0 10-4.477 10-10s-4.477-10-10-10zm-100 40h-60c-5.523 0-10 4.477-10 10 0 5.523 4.477 10 10 10h60c5.523 0 10-4.477 10-10 0-5.523-4.477-10-10-10zm40 0c-5.523 0-10 4.477-10 10 0 5.523 4.477 10 10 10s10-4.477 10-10c0-5.523-4.477-10-10-10z" fill="#f5c02c"/><path d="m184.5 385c0 19.33-15.67 35-35 35s-35-15.67-35-35 15.67-35 35-35 35 15.67 35 35zm55-245c-46.944 0-85 38.056-85 85s38.056 85 85 85 85-38.056 85-85-38.056-85-85-85z" fill="#fd7a7a"/><path d="m344.5 265c0 24.853-20.147 45-45 45s-45-20.147-45-45 20.147-45 45-45 45 20.147 45 45z" fill="#e43950"/></svg>