<?xml version="1.0"?>
<svg xmlns="http://www.w3.org/2000/svg" xmlns:xlink="http://www.w3.org/1999/xlink" xmlns:svgjs="http://svgjs.com/svgjs" version="1.1" width="512" height="512" x="0" y="0" viewBox="0 0 512 512" style="enable-background:new 0 0 512 512" xml:space="preserve" class=""><circle r="256" cx="256" cy="256" fill="#bac8d3" shape="circle"/><g transform="matrix(0.7,0,0,0.7,76.80000000000001,76.80000000000001)">
<path xmlns="http://www.w3.org/2000/svg" style="" d="M350.906,84.691c-1.724-3.196-4.976-5.175-8.503-5.175c-17.704,0-124.402,0-142.386,0l0,0  c-17.953,0-124.618,0-142.352,0c-3.548,0-6.819,1.991-8.553,5.205L3.805,168.73c3.61-4.103,8.788-6.694,14.562-6.694H77.95h244.135  h59.583c5.774,0,10.953,2.59,14.562,6.694L350.906,84.691z" fill="#f8a748" data-original="#f8a748"/>
<path xmlns="http://www.w3.org/2000/svg" style="" d="M89.505,84.721c1.129-3.214,3.258-5.205,5.568-5.205c-13.042,0-24.131,0-37.407,0  c-3.548,0-6.819,1.991-8.553,5.205L3.805,168.73c3.61-4.103,8.788-6.694,14.562-6.694h43.994L89.505,84.721z" fill="#f38d1a" data-original="#f38d1a"/>
<path xmlns="http://www.w3.org/2000/svg" style="" d="M400.34,178.607c0-10.837-8.785-19.623-19.623-19.623h-59.219H78.842H19.623  C8.785,158.984,0,167.77,0,178.607c0,13.778,0,288.99,0,304.118c0,10.837,8.785,19.623,19.623,19.623h361.095  c10.837,0,19.623-8.785,19.623-19.623C400.34,467.683,400.34,192.354,400.34,178.607z" fill="#fac149" data-original="#fac149" class=""/>
<path xmlns="http://www.w3.org/2000/svg" style="" d="M44.002,482.725c0-15.042,0-290.371,0-304.118c0-10.837,8.785-19.623,19.623-19.623H19.623  C8.785,158.984,0,167.77,0,178.607c0,13.778,0,288.99,0,304.118c0,10.837,8.785,19.623,19.623,19.623h44.002  C52.787,502.348,44.002,493.562,44.002,482.725z" fill="#f8a748" data-original="#f8a748"/>
<path xmlns="http://www.w3.org/2000/svg" style="" d="M155.309,79.516v79.41h89.723v-79.41C234.185,79.516,166.227,79.516,155.309,79.516z" fill="#dddddd" data-original="#dddddd"/>
<path xmlns="http://www.w3.org/2000/svg" style="" d="M155.309,79.516v79.41h44.861v-79.41C184.493,79.516,170.986,79.516,155.309,79.516z" fill="#ceccca" data-original="#ceccca"/>
<path xmlns="http://www.w3.org/2000/svg" style="" d="M512,111.247c0-8.835-10.416-15.95-12.531-23.867c-2.182-8.169,3.193-19.576-1.067-26.939  c-4.309-7.448-16.959-8.519-22.813-14.376c-5.88-5.878-6.895-18.485-14.374-22.813c-7.365-4.261-18.783,1.113-26.94-1.068  c-7.916-2.115-15.043-12.531-23.869-12.531c-8.836,0-15.95,10.415-23.867,12.531c-8.162,2.183-19.57-3.194-26.939,1.068  c-7.452,4.312-8.517,16.956-14.374,22.812c-5.876,5.878-18.493,6.908-22.813,14.376c-4.261,7.363,1.113,18.781-1.068,26.939  c-2.108,7.889-12.531,15.058-12.531,23.868c0,8.837,10.415,15.95,12.531,23.868c2.178,8.147-3.185,19.59,1.067,26.939  c4.309,7.448,16.959,8.52,22.813,14.376c5.88,5.878,6.895,18.485,14.374,22.813c7.379,4.268,18.771-1.119,26.94,1.068  c7.892,2.109,15.055,12.531,23.868,12.531c8.836,0,15.95-10.415,23.868-12.531c8.158-2.184,19.574,3.195,26.939-1.068  c7.452-4.311,8.517-16.956,14.374-22.812c5.876-5.879,18.493-6.908,22.814-14.376c4.26-7.363-1.113-18.781,1.067-26.939  C501.584,127.198,512,120.074,512,111.247z" fill="#48aef9" data-original="#48aef9"/>
<path xmlns="http://www.w3.org/2000/svg" style="" d="M468.632,189.245c-41.913,8.946-86.584-9.442-109.169-48.561  c-22.587-39.121-16.174-87.004,12.534-118.829c-4.108-0.431-8.18-0.586-11.511,0.944c-0.277,0.156-0.556,0.306-0.832,0.466  c-0.301,0.173-0.594,0.354-0.892,0.53c-6.734,4.771-7.879,16.615-13.536,22.269c-5.642,5.644-17.558,6.832-22.295,13.569  c-0.33,0.56-0.652,1.124-0.971,1.69c-3.391,7.377,1.475,18.237-0.615,26.057c-2.034,7.609-11.795,14.538-12.492,22.932  c-0.006,0.586-0.009,1.172-0.005,1.758c0.619,8.456,10.454,15.401,12.497,23.045c2.079,7.778-2.718,18.531,0.556,25.918  c0.19,0.337,0.373,0.676,0.567,1.011c0.186,0.323,0.38,0.638,0.57,0.958c4.823,6.634,16.568,7.806,22.187,13.427  c5.812,5.81,6.799,17.846,13.86,22.485c0.39,0.228,0.784,0.451,1.177,0.674c7.389,3.599,18.378-1.393,26.277,0.721  c7.892,2.109,15.057,12.531,23.868,12.531c8.836,0,15.95-10.415,23.868-12.531c8.158-2.184,19.574,3.195,26.939-1.068  C464.711,197.219,466.81,193.34,468.632,189.245z" fill="#3997ee" data-original="#3997ee" class=""/>
<path xmlns="http://www.w3.org/2000/svg" style="" d="M170.836,255.938c14.469,0,14.469,10.623,28.938,10.623c14.471,0,14.471-10.623,28.942-10.623  c6.298,0,9.856,2.011,13.058,4.284c1.367,0.97,3.257-0.004,3.257-1.68v-99.616h-89.723v99.116c0,1.643,1.836,2.602,3.194,1.678  C161.527,257.661,165.008,255.938,170.836,255.938z" fill="#efefef" data-original="#efefef"/>
<path xmlns="http://www.w3.org/2000/svg" style="" d="M200.593,158.926h-45.285v99.116c0,1.643,1.836,2.602,3.194,1.678  c3.024-2.058,6.505-3.781,12.333-3.781c14.469,0,14.469,10.624,28.938,10.624c0.282,0,0.548-0.011,0.819-0.019V158.926H200.593z" fill="#dddddd" data-original="#dddddd"/>
<g xmlns="http://www.w3.org/2000/svg">
	<path style="" d="M358.77,419.844c0-4.272-3.463-7.735-7.735-7.735H223.367c-4.272,0-7.735,3.462-7.735,7.735   s3.463,7.735,7.735,7.735h127.669C355.307,427.579,358.77,424.116,358.77,419.844z" fill="#fcd597" data-original="#fcd597"/>
	<path style="" d="M358.77,454.908c0-4.272-3.463-7.735-7.735-7.735H223.367c-4.272,0-7.735,3.462-7.735,7.735   s3.463,7.735,7.735,7.735h127.669C355.307,462.643,358.77,459.18,358.77,454.908z" fill="#fcd597" data-original="#fcd597"/>
</g>
<path xmlns="http://www.w3.org/2000/svg" style="" d="M341.754,385.811H232.649c-9.398,0-17.016-7.618-17.016-17.016l0,0  c0-9.398,7.618-17.017,17.016-17.017h109.105c9.398,0,17.016,7.618,17.016,17.017l0,0  C358.77,378.193,351.152,385.811,341.754,385.811z" fill="#f8a748" data-original="#f8a748"/>
<path xmlns="http://www.w3.org/2000/svg" style="" d="M259.634,368.795c0-9.398,7.618-17.016,17.016-17.016h-44.002c-9.398,0-17.016,7.618-17.016,17.016  c0,9.398,7.618,17.016,17.016,17.016h44.002C267.253,385.811,259.634,378.193,259.634,368.795z" fill="#f38d1a" data-original="#f38d1a"/>
<path xmlns="http://www.w3.org/2000/svg" style="" d="M399.839,145.262L399.839,145.262c-3.511,0-6.878-1.395-9.361-3.877l-18.294-18.294  c-5.17-5.17-5.17-13.552,0-18.721s13.552-5.169,18.721,0l8.933,8.934l25.82-25.82c5.17-5.17,13.551-5.17,18.722,0  c5.169,5.17,5.169,13.551,0,18.721l-35.181,35.181C406.717,143.868,403.349,145.262,399.839,145.262z" fill="#efefef" data-original="#efefef"/>
<path xmlns="http://www.w3.org/2000/svg" style="" d="M444.38,87.483c-0.468-0.468-0.97-0.879-1.487-1.262c-0.015,2.972-1.153,5.94-3.421,8.209  l-31.065,31.065c-4.562,4.562-11.967,4.565-16.531,0l-16.154-16.154c-1.548-1.549-2.559-3.426-3.057-5.407  c-0.161,0.146-0.328,0.281-0.483,0.436c-5.17,5.17-5.17,13.551,0,18.721l18.294,18.294c5.166,5.166,13.552,5.169,18.721,0  l35.181-35.181C449.549,101.035,449.549,92.653,444.38,87.483z" fill="#dddddd" data-original="#dddddd"/>
<g xmlns="http://www.w3.org/2000/svg">
</g>
<g xmlns="http://www.w3.org/2000/svg">
</g>
<g xmlns="http://www.w3.org/2000/svg">
</g>
<g xmlns="http://www.w3.org/2000/svg">
</g>
<g xmlns="http://www.w3.org/2000/svg">
</g>
<g xmlns="http://www.w3.org/2000/svg">
</g>
<g xmlns="http://www.w3.org/2000/svg">
</g>
<g xmlns="http://www.w3.org/2000/svg">
</g>
<g xmlns="http://www.w3.org/2000/svg">
</g>
<g xmlns="http://www.w3.org/2000/svg">
</g>
<g xmlns="http://www.w3.org/2000/svg">
</g>
<g xmlns="http://www.w3.org/2000/svg">
</g>
<g xmlns="http://www.w3.org/2000/svg">
</g>
<g xmlns="http://www.w3.org/2000/svg">
</g>
<g xmlns="http://www.w3.org/2000/svg">
</g>
</g></svg>
