<svg id="Capa_1" enable-background="new 0 0 497.297 497.297" height="512" viewBox="0 0 497.297 497.297" width="512" xmlns="http://www.w3.org/2000/svg"><g><path d="m410.673 96.317h-20.601l-11.075 13.063h-70.24l-5.607-13.063h-33.6l-8.537 6.526h-48.981l-4.615-6.526h-141.124c-6.54 0-11.83 5.29-11.83 11.83v239.83c0 6.53 5.29 11.82 11.83 11.82h344.38c6.54 0 11.83-5.29 11.83-11.82v-239.83c0-6.54-5.29-11.83-11.83-11.83z" fill="#dfae91"/><g><path d="m108.116 326.241c-6.54 0-11.83-5.29-11.83-11.82v-218.104h-29.993c-6.54 0-11.83 5.29-11.83 11.83v239.83c0 6.53 5.29 11.82 11.83 11.82h344.38c6.54 0 11.83-5.29 11.83-11.82v-21.737h-314.387z" fill="#d79c7a"/><path d="m269.551 96.316h-62.135v72.414c0 4.031 4.004 6.837 7.793 5.461l21.292-7.73c1.281-.465 2.685-.465 3.966 0l21.292 7.73c3.789 1.376 7.793-1.431 7.793-5.461v-72.414z" fill="#fbe372"/><path d="m379.645 251.668h-66.067c-5.759 0-10.428-4.669-10.428-10.428v-144.924h86.924v144.923c-.001 5.76-4.67 10.429-10.429 10.429z" fill="#f8f7f8"/><path d="m227.116 306.456h-132.397c-3.091 0-5.596-2.505-5.596-5.596v-39.09c0-3.091 2.505-5.596 5.596-5.596h132.397c3.091 0 5.596 2.505 5.596 5.596v39.09c0 3.091-2.506 5.596-5.596 5.596z" fill="#f8f7f8"/><path d="m94.719 306.456h1.567v-50.282h-1.567c-3.09 0-5.596 2.505-5.596 5.596v39.09c0 3.091 2.506 5.596 5.596 5.596z" fill="#efedee"/><g><g><path d="m210.138 235.559h-121.014c-4.143 0-7.5-3.357-7.5-7.5s3.357-7.5 7.5-7.5h121.015c4.143 0 7.5 3.357 7.5 7.5s-3.358 7.5-7.501 7.5z" fill="#f8f7f8"/></g></g><path d="m89.124 235.559h7.163v-15h-7.163c-4.143 0-7.5 3.357-7.5 7.5s3.357 7.5 7.5 7.5z" fill="#efedee"/><g><g><path d="m184.937 205.165h-95.813c-4.143 0-7.5-3.357-7.5-7.5s3.357-7.5 7.5-7.5h95.813c4.143 0 7.5 3.357 7.5 7.5s-3.357 7.5-7.5 7.5z" fill="#f8f7f8"/></g></g><path d="m89.124 205.165h7.163v-15h-7.163c-4.143 0-7.5 3.357-7.5 7.5s3.357 7.5 7.5 7.5z" fill="#efedee"/><g id="XMLID_289_"><g><path d="m176.743 43.567c0 19.34-12.59 35.72-30.02 41.41l-11.09 13.98c-1.26 1.58-3.65 1.58-4.9 0l-11.1-13.98c-18.04-5.89-30.9-23.23-29.98-43.45 1.03-22.53 18.93-40.44 41.46-41.48 25-1.15 45.63 18.78 45.63 43.52zm-28.7 0c0-8.21-6.66-14.86-14.86-14.86-8.21 0-14.87 6.65-14.87 14.86s6.66 14.87 14.87 14.87c8.2 0 14.86-6.66 14.86-14.87z" fill="#e5827f"/></g></g><g id="XMLID_292_"><g><path d="m171.433 384.777c-2.538-3.444-3.979-7.743-3.818-12.381.371-10.71 9.517-19.039 20.233-19.039h64.125l17.25-3.12c6.78-1.22 13.57-1.82 20.3-1.82 36.83 0 71.94 17.88 93.51 48.77l58.671 89.523c2.981 4.548-.282 10.587-5.72 10.587h-121.968c-2.277 0-4.405-1.133-5.675-3.023l-26.987-40.139c-1.907-2.836-5.101-4.538-8.518-4.538h-71.082c-11.91 0-23.59-3.31-33.73-9.56l-83.63-51.55c-4.77-2.94-7.37-8.02-7.37-13.21 0-2.92.83-5.88 2.56-8.51 4.18-6.33 12.31-8.71 19.24-5.63l53.12 23.64z" fill="#ffe0d1"/></g><g><path d="m437.201 479.839h-110.444c-4.548 0-8.797-2.263-11.334-6.037l-22.442-33.379c-3.481-5.178-9.311-8.283-15.55-8.283h-66.569c-11.91 0-23.59-3.31-33.73-9.56l-83.63-51.55c-3.772-2.325-6.182-6.003-7.027-10-2.732 1.158-5.155 3.108-6.892 5.739-1.73 2.63-2.56 5.59-2.56 8.51 0 5.19 2.6 10.27 7.37 13.21l83.63 51.55c10.14 6.25 21.82 9.56 33.73 9.56h70.187c3.978 0 7.694 1.98 9.914 5.281l26.487 39.396c1.27 1.89 3.398 3.023 5.675 3.023h121.969c5.438 0 8.7-6.039 5.72-10.587z" fill="#ffd1c2"/><path d="m180.543 367.319c-2.228-3.022-3.608-6.703-3.804-10.694-3.871 2.488-6.832 6.244-8.233 10.694z" fill="#ffe0d1"/></g><g><g id="XMLID_293_"><g><path d="m170.638 383.601c.253.401.514.796.795 1.176h-16.8c1.12 3.137 2.673 6.114 4.677 8.833 1.025 1.408 2.192 2.769 3.465 4.042 6.56 6.562 15.281 10.175 24.558 10.175h86.924c13.38 0 24.227-10.847 24.227-24.227h-127.846z" fill="#ffd1c2"/><path d="m379.833 392.827h-192.5c-5.45 0-10.38-2.21-13.95-5.78-.71-.71-1.36-1.46-1.95-2.27-2.41-3.27-3.83-7.31-3.83-11.68 0-10.9 8.83-19.74 19.73-19.74h64.64l17.25-3.12c6.78-1.22 13.57-1.82 20.3-1.82 35.06 0 68.56 16.2 90.31 44.41z" fill="#ffe0d1"/></g></g></g></g></g></g></svg>