<?xml version="1.0"?>
<svg xmlns="http://www.w3.org/2000/svg" xmlns:xlink="http://www.w3.org/1999/xlink" xmlns:svgjs="http://svgjs.com/svgjs" version="1.1" width="512" height="512" x="0" y="0" viewBox="0 0 64 64" style="enable-background:new 0 0 512 512" xml:space="preserve" class=""><circle r="32" cx="32" cy="32" fill="#bac8d3" shape="circle"/><g transform="matrix(0.7,0,0,0.7,9.600000000000001,9.600000000000001)"><g xmlns="http://www.w3.org/2000/svg" id="Layer_29" data-name="Layer 29"><path d="m11 2a4 4 0 0 0 -4 4v53a3 3 0 0 1 3-3h41v-54z" fill="#2763bb" data-original="#2763bb" style=""/><path d="m11 2a4 4 0 0 0 -4 4v47h37a4 4 0 0 0 4-4v-47z" fill="#3079e6" data-original="#3079e6" style=""/><path d="m47 49a3 3 0 0 0 -3 3h-22a3 3 0 0 0 -3-3v-40a3 3 0 0 0 3-3h22a3 3 0 0 0 3 3z" fill="#cccccc" data-original="#cccccc" style=""/><path d="m45 8.221a2.978 2.978 0 0 1 -1-2.221h-22a3 3 0 0 1 -3 3v38h21a5 5 0 0 0 5-5z" fill="#f2f2f2" data-original="#f2f2f2" style=""/><path d="m57 62-6-6v-52h6z" fill="#3079e6" data-original="#3079e6" style=""/><path d="m42 21a9 9 0 0 0 -9.278-9 9.1 9.1 0 0 0 -8.722 9.033 8.961 8.961 0 0 0 3.048 6.707 5.477 5.477 0 0 1 1.952 4.084v.176h8v-.129a5.147 5.147 0 0 1 1.765-3.971 8.961 8.961 0 0 0 3.235-6.9z" fill="#f3a845" data-original="#f3a845" style=""/><path d="m37.518 13.227a8.947 8.947 0 0 0 -4.796-1.227 9.1 9.1 0 0 0 -8.722 9.033 8.925 8.925 0 0 0 2.1 5.711h7.423a4 4 0 0 0 4-4z" fill="#eecc61" data-original="#eecc61" style=""/><path d="m51 4v52h-41a3 3 0 0 0 0 6h47v-58z" fill="#73a4ea" data-original="#73a4ea" style="" class=""/><path d="m14 2h2v54h-2z" fill="#1d4a8c" data-original="#1d4a8c" style=""/><path d="m30 32v2a2 2 0 0 0 2 2h2a2 2 0 0 0 2-2v-2z" fill="#939393" data-original="#939393" style=""/><g fill="#fff"><path d="m36.293 21.293-1.707 1.707h-3.172l-1.707-1.707-1.414 1.414 2 2a1 1 0 0 0 .707.293h1v7h2v-7h1a1 1 0 0 0 .707-.293l2-2z" fill="#ffffff" data-original="#ffffff" style=""/><path d="m22 39h22v2h-22z" fill="#ffffff" data-original="#ffffff" style=""/><path d="m22 43h18v2h-18z" fill="#ffffff" data-original="#ffffff" style=""/><path d="m42 43h2v2h-2z" fill="#ffffff" data-original="#ffffff" style=""/></g><path d="m57 62-6-6v-52h6z" fill="#3079e6" data-original="#3079e6" style=""/></g></g></svg>
