<?xml version="1.0" encoding="UTF-8"?>
<svg xmlns="http://www.w3.org/2000/svg" xmlns:xlink="http://www.w3.org/1999/xlink" xmlns:svgjs="http://svgjs.com/svgjs" version="1.1" width="512" height="512" x="0" y="0" viewBox="0 0 512 511" style="enable-background:new 0 0 512 512" xml:space="preserve" class="">
  <circle r="256" cx="256" cy="255.5" fill="#bac8d3" shape="circle"/>
  <g transform="matrix(0.7,0,0,0.7,76.80000000000001,76.12089843750002)">
    <path xmlns="http://www.w3.org/2000/svg" d="m504 .5v180l-48 76-48-76v-180zm0 0" fill="#ff8a80" data-original="#ff8a80" style=""/>
    <path xmlns="http://www.w3.org/2000/svg" d="m456 176.5 16-12v-164h-32v164zm0 0" fill="#ffffff" data-original="#ffffff" style="" class=""/>
    <path xmlns="http://www.w3.org/2000/svg" d="m456 256.5 30.3125-48h-60.625zm0 0" fill="#50575e" data-original="#50575e" style=""/>
    <path xmlns="http://www.w3.org/2000/svg" d="m472 164.5-16 12-16-12-32 16 17.6875 28h60.625l17.6875-28zm0 0" fill="#ffdecf" data-original="#ffdecf" style=""/>
    <path xmlns="http://www.w3.org/2000/svg" d="m304 104.5h-96l-96 296h64l16-56h128l16 56h64zm-96 176 24-96h48l24 96zm0 0" fill="#91e8ed" data-original="#91e8ed" style=""/>
    <path xmlns="http://www.w3.org/2000/svg" d="m496 .5v167.054688l-16-8v-159.054688h-16v160l-8 6-8-6v-160h-16v159.054688l-16 8v-167.054688h-16v182.320312l56 88.664063 56-88.664063v-182.320312zm-40 241.015625-15.800781-25.015625h31.601562zm25.902344-41.015625h-51.804688l-10.609375-16.800781 19.710938-9.832031 16.800781 12.632812 16.800781-12.632812 19.710938 9.832031zm0 0" fill="#000000" data-original="#000000" style="" class=""/>
    <path xmlns="http://www.w3.org/2000/svg" d="m225.753906 176.5-28 112h116.492188l-28-112zm-7.507812 96 20-80h35.507812l20 80zm0 0" fill="#000000" data-original="#000000" style="" class=""/>
    <path xmlns="http://www.w3.org/2000/svg" d="m312 103.242188v-54.742188h32v-16h-32v-32h-16v32h-80v-32h-16v32h-32v16h32v54.742188l-23.761719 73.257812h-112.238281v-32h-16v32h-48v16h48v80h-48v16h48v32h16v-32h75.910156l-51.910156 160h-40v16h34.832031l-12.167969 37.527344 15.199219 4.945312 13.792969-42.472656h49.734375l-10.796875 37.800781 15.390625 4.398438 12.054687-42.199219h41.960938v-16h-37.390625l27.421875-96h115.9375l27.421875 96h-37.390625v16h41.960938l12.054687 42.199219 15.390625-4.398438-10.796875-37.800781h49.734375l13.777344 42.472656 15.199218-4.945312-12.152343-37.527344h34.832031v-16h-40zm-96-54.742188h80v48h-80zm-152 224v-80h107.046875l-25.941406 80zm89.960938 176h-49.121094l12.976562-40h47.574219zm188.070312-56-16-56h-140.0625l-16 56h-46.960938l90.808594-280h84.367188l90.808594 280zm16 56-11.429688-40h47.574219l13.023438 40zm0 0" fill="#000000" data-original="#000000" style="" class=""/>
  </g>
</svg>
