<?xml version="1.0" encoding="UTF-8"?>
<svg xmlns="http://www.w3.org/2000/svg" xmlns:xlink="http://www.w3.org/1999/xlink" xmlns:svgjs="http://svgjs.com/svgjs" version="1.1" width="512" height="512" x="0" y="0" viewBox="0 0 512 512" style="enable-background:new 0 0 512 512" xml:space="preserve" class="">
  <circle r="256" cx="256" cy="256" fill="#bac8d3" shape="circle"/>
  <g transform="matrix(0.7,0,0,0.7,76.80000000000001,76.80000000000001)">
    <g xmlns="http://www.w3.org/2000/svg">
      <g>
        <path d="m256 391h-45v60h45 45v-60z" fill="#edf5ff" data-original="#edf5ff" style="" class=""/>
        <path d="m256 391h45v60h-45z" fill="#d5e8fe" data-original="#d5e8fe" style=""/>
        <g>
          <path d="m380.746 466.771-90.015-29.995c-1.538-.513-3.135-.776-4.746-.776h-29.985-30c-1.611 0-3.208.264-4.746.776l-90 30c-7.852 2.607-12.1 11.104-9.478 18.97 2.604 7.811 11.058 12.114 18.97 9.478l87.686-29.224h27.568 27.554l87.7 29.218c7.896 2.637 16.348-1.626 18.97-9.478 2.622-7.866-1.626-16.362-9.478-18.969z" fill="#edf5ff" data-original="#edf5ff" style="" class=""/>
          <path d="m371.254 495.218c7.896 2.637 16.348-1.626 18.97-9.478 2.622-7.866-1.626-16.362-9.478-18.97l-90.015-29.995c-1.538-.513-3.135-.776-4.746-.776h-29.985v30h27.554z" fill="#d5e8fe" data-original="#d5e8fe" style=""/>
          <path d="m497 16h-241-241c-8.284 0-15 6.714-15 15v360c0 8.284 6.716 15 15 15h241 241c8.284 0 15-6.716 15-15v-360c0-8.286-6.716-15-15-15z" fill="#47568c" data-original="#47568c" style=""/>
          <path d="m512 391v-360c0-8.286-6.716-15-15-15h-241v390h241c8.284 0 15-6.716 15-15z" fill="#29376d" data-original="#29376d" style=""/>
        </g>
        <path d="m256 46h-226v330h226 226v-330z" fill="#76e2f8" data-original="#76e2f8" style="" class=""/>
        <path d="m256 46h226v330h-226z" fill="#73bcff" data-original="#73bcff" style=""/>
      </g>
      <g fill="#d5e8fe">
        <path d="m406 136h-120c-8.291 0-15-6.709-15-15s6.709-15 15-15h120c8.291 0 15 6.709 15 15s-6.709 15-15 15z" fill="#d5e8fe" data-original="#d5e8fe" style=""/>
        <path d="m406 196h-120c-8.291 0-15-6.709-15-15s6.709-15 15-15h120c8.291 0 15 6.709 15 15s-6.709 15-15 15z" fill="#d5e8fe" data-original="#d5e8fe" style=""/>
        <path d="m406 256h-120c-8.291 0-15-6.709-15-15s6.709-15 15-15h120c8.291 0 15 6.709 15 15s-6.709 15-15 15z" fill="#d5e8fe" data-original="#d5e8fe" style=""/>
      </g>
      <path d="m421 301c0 8.401-6.599 15-15 15h-300c-8.401 0-15-6.599-15-15s6.599-15 15-15h300c8.401 0 15 6.599 15 15z" fill="#edf5ff" data-original="#edf5ff" style="" class=""/>
      <path d="m226 256h-120c-8.291 0-15-6.709-15-15v-120c0-8.291 6.709-15 15-15h120c8.291 0 15 6.709 15 15v120c0 8.291-6.709 15-15 15z" fill="#edf5ff" data-original="#edf5ff" style="" class=""/>
      <path d="m421 301c0 8.401-6.599 15-15 15h-150v-30h150c8.401 0 15 6.599 15 15z" fill="#d5e8fe" data-original="#d5e8fe" style=""/>
    </g>
  </g>
</svg>
