<?xml version="1.0" encoding="UTF-8" standalone="no"?>
<svg
   xmlns:dc="http://purl.org/dc/elements/1.1/"
   xmlns:cc="http://creativecommons.org/ns#"
   xmlns:rdf="http://www.w3.org/1999/02/22-rdf-syntax-ns#"
   xmlns:svg="http://www.w3.org/2000/svg"
   xmlns="http://www.w3.org/2000/svg"
   viewBox="0 0 666.66669 666.66669"
   height="666.66669"
   width="666.66669"
   xml:space="preserve"
   id="svg2"
   version="1.1"><metadata
     id="metadata8"><rdf:RDF><cc:Work
         rdf:about=""><dc:format>image/svg+xml</dc:format><dc:type
           rdf:resource="http://purl.org/dc/dcmitype/StillImage" /></cc:Work></rdf:RDF></metadata><defs
     id="defs6"><clipPath
       id="clipPath34"
       clipPathUnits="userSpaceOnUse"><path
         id="path32"
         d="M 0,500 H 500 V 0 H 0 Z" /></clipPath><clipPath
       id="clipPath78"
       clipPathUnits="userSpaceOnUse"><path
         id="path76"
         d="M 239.647,426.736 H 408.33 V 251.847 H 239.647 Z" /></clipPath><clipPath
       id="clipPath170"
       clipPathUnits="userSpaceOnUse"><path
         id="path168"
         d="M 0,500 H 500 V 0 H 0 Z" /></clipPath><clipPath
       id="clipPath182"
       clipPathUnits="userSpaceOnUse"><path
         id="path180"
         d="M 66.0291,437.378 H 420.819 V 203.109 H 66.0291 Z" /></clipPath><clipPath
       id="clipPath198"
       clipPathUnits="userSpaceOnUse"><path
         id="path196"
         d="M 0,500 H 500 V 0 H 0 Z" /></clipPath><clipPath
       id="clipPath210"
       clipPathUnits="userSpaceOnUse"><path
         id="path208"
         d="M 0,500 H 500 V 0 H 0 Z" /></clipPath><clipPath
       id="clipPath246"
       clipPathUnits="userSpaceOnUse"><path
         id="path244"
         d="M 136.612,368.701 H 266.94 V 235.646 H 136.612 Z" /></clipPath><clipPath
       id="clipPath294"
       clipPathUnits="userSpaceOnUse"><path
         id="path292"
         d="M 0,500 H 500 V 0 H 0 Z" /></clipPath><clipPath
       id="clipPath302"
       clipPathUnits="userSpaceOnUse"><path
         id="path300"
         d="m 295.835,239.667 h 93.444 V 83.762 h -93.444 z" /></clipPath><clipPath
       id="clipPath390"
       clipPathUnits="userSpaceOnUse"><path
         id="path388"
         d="m 328.163,382.639 h 11.086 v -15.543 h -11.086 z" /></clipPath><clipPath
       id="clipPath410"
       clipPathUnits="userSpaceOnUse"><path
         id="path408"
         d="m 303.548,371.111 h 6.969 v -14.77 h -6.969 z" /></clipPath><clipPath
       id="clipPath438"
       clipPathUnits="userSpaceOnUse"><path
         id="path436"
         d="m 331.232,159.282 h 7.76 v -9.565 h -7.76 z" /></clipPath><clipPath
       id="clipPath454"
       clipPathUnits="userSpaceOnUse"><path
         id="path452"
         d="m 382.74,182.43 h 11.257 V 171.521 H 382.74 Z" /></clipPath><clipPath
       id="clipPath494"
       clipPathUnits="userSpaceOnUse"><path
         id="path492"
         d="M 328.553,311.202 H 343.63 V 255.855 H 328.553 Z" /></clipPath></defs><g
     transform="matrix(1.3333333,0,0,-1.3333333,0,666.66667)"
     id="g10"><path
       id="path12"
       style="fill:#ececec;fill-opacity:1;fill-rule:nonzero;stroke:none"
       d="m 0,117.352 h 500 v 0.249 H 0 Z" /><path
       id="path14"
       style="fill:#ececec;fill-opacity:1;fill-rule:nonzero;stroke:none"
       d="m 78.545,108.962 h 33.122 v 0.25 H 78.545 Z" /><path
       id="path16"
       style="fill:#ececec;fill-opacity:1;fill-rule:nonzero;stroke:none"
       d="M 133.333,101.75 H 163.5 v 0.249 h -30.167 z" /><path
       id="path18"
       style="fill:#ececec;fill-opacity:1;fill-rule:nonzero;stroke:none"
       d="m 56.855,99.677 h 38.251 v 0.25 H 56.855 Z" /><path
       id="path20"
       style="fill:#ececec;fill-opacity:1;fill-rule:nonzero;stroke:none"
       d="m 434,100.223 h 15.901 v 0.249 H 434 Z" /><path
       id="path22"
       style="fill:#ececec;fill-opacity:1;fill-rule:nonzero;stroke:none"
       d="m 391.472,100.223 h 39.32 v 0.249 h -39.32 z" /><path
       id="path24"
       style="fill:#ececec;fill-opacity:1;fill-rule:nonzero;stroke:none"
       d="m 250,109.087 h 30.334 v 0.249 H 250 Z" /><path
       id="path26"
       style="fill:#ececec;fill-opacity:1;fill-rule:nonzero;stroke:none"
       d="m 284.666,109.087 h 72.095 v 0.249 h -72.095 z" /><g
       id="g28"><g
         clip-path="url(#clipPath34)"
         id="g30"><g
           transform="translate(43.915,444.7979)"
           id="g36"><path
             id="path38"
             style="fill:#ececec;fill-opacity:1;fill-rule:nonzero;stroke:none"
             d="M 0,0 C -3.01,0 -5.458,-2.449 -5.458,-5.458 V -276.89 c 0,-3.009 2.448,-5.458 5.458,-5.458 h 193.099 c 3.008,0 5.457,2.449 5.457,5.458 V -5.458 c 0,3.009 -2.449,5.458 -5.457,5.458 z M 193.099,-282.598 H 0 c -3.147,0 -5.708,2.561 -5.708,5.708 V -5.458 c 0,3.146 2.561,5.708 5.708,5.708 h 193.099 c 3.146,0 5.707,-2.562 5.707,-5.708 V -276.89 c 0,-3.147 -2.561,-5.708 -5.707,-5.708" /></g><g
           transform="translate(260.2119,444.7979)"
           id="g40"><path
             id="path42"
             style="fill:#ececec;fill-opacity:1;fill-rule:nonzero;stroke:none"
             d="M 0,0 C -3.009,0 -5.457,-2.449 -5.457,-5.458 V -276.89 c 0,-3.009 2.448,-5.458 5.457,-5.458 h 193.099 c 3.009,0 5.458,2.449 5.458,5.458 V -5.458 c 0,3.009 -2.449,5.458 -5.458,5.458 z M 193.099,-282.598 H 0 c -3.146,0 -5.707,2.561 -5.707,5.708 V -5.458 c 0,3.146 2.561,5.708 5.707,5.708 h 193.099 c 3.147,0 5.708,-2.562 5.708,-5.708 V -276.89 c 0,-3.147 -2.561,-5.708 -5.708,-5.708" /></g><path
           id="path44"
           style="fill:#e7e7e7;fill-opacity:1;fill-rule:nonzero;stroke:none"
           d="M 293.389,117.602 H 264.622 V 233.79 h 28.767 z" /><g
           transform="translate(281.4297,117.6016)"
           id="g46"><path
             id="path48"
             style="fill:#f5f5f5;fill-opacity:1;fill-rule:nonzero;stroke:none"
             d="M 0,0 H 11.959 V 20.041 H -12.539 Z" /></g><path
           id="path50"
           style="fill:#e7e7e7;fill-opacity:1;fill-rule:nonzero;stroke:none"
           d="M 85.621,117.602 H 56.855 V 233.79 h 28.766 z" /><path
           id="path52"
           style="fill:#f5f5f5;fill-opacity:1;fill-rule:nonzero;stroke:none"
           d="M 293.389,124.5 H 75.184 v 109.289 h 218.205 z" /><path
           id="path54"
           style="fill:#ececec;fill-opacity:1;fill-rule:nonzero;stroke:none"
           d="m 84.961,201.241 h 198.65 v 21.901 H 84.961 Z m 199.65,-1 H 83.961 v 23.901 h 200.65 z" /><g
           transform="translate(87.1426,117.6016)"
           id="g56"><path
             id="path58"
             style="fill:#f5f5f5;fill-opacity:1;fill-rule:nonzero;stroke:none"
             d="M 0,0 H -11.959 V 20.041 H 12.539 Z" /></g><path
           id="path60"
           style="fill:#ececec;fill-opacity:1;fill-rule:nonzero;stroke:none"
           d="m 84.961,135.146 h 198.65 v 54.95 H 84.961 Z m 199.65,-1 H 83.961 v 56.95 h 200.65 z" /><path
           id="path62"
           style="fill:#e7e7e7;fill-opacity:1;fill-rule:nonzero;stroke:none"
           d="M 407.867,264.017 H 180.491 v 157.46 h 227.376 z" /><path
           id="path64"
           style="fill:#f5f5f5;fill-opacity:1;fill-rule:nonzero;stroke:none"
           d="M 412.046,264.017 H 184.67 v 157.46 h 227.376 z" /><path
           id="path66"
           style="fill:#ffffff;fill-opacity:1;fill-rule:nonzero;stroke:none"
           d="M 192.171,413.527 H 404.544 V 271.965 H 192.171 Z" /><path
           id="path68"
           style="fill:#e7e7e7;fill-opacity:1;fill-rule:nonzero;stroke:none"
           d="m 401.385,413.527 h 3.159 V 271.965 h -3.159 z" /><path
           id="path70"
           style="fill:#f5f5f5;fill-opacity:1;fill-rule:nonzero;stroke:none"
           d="m 408.943,395.509 h -221.17 v 5.336 h 221.17 z" /><g
           id="g72"><g
             id="g74" /><g
             id="g112"><g
               style="opacity:0.5"
               id="g110"
               clip-path="url(#clipPath78)"><path
                 id="path80"
                 style="fill:#f0f0f0;fill-opacity:1;fill-rule:nonzero;stroke:none"
                 d="m 399.349,251.848 h 8.98 v 174.889 h -8.98 z" /><path
                 id="path82"
                 style="fill:#f0f0f0;fill-opacity:1;fill-rule:nonzero;stroke:none"
                 d="m 387.942,251.848 h 8.98 v 174.889 h -8.98 z" /><path
                 id="path84"
                 style="fill:#f0f0f0;fill-opacity:1;fill-rule:nonzero;stroke:none"
                 d="m 376.534,251.848 h 8.981 v 174.889 h -8.981 z" /><path
                 id="path86"
                 style="fill:#f0f0f0;fill-opacity:1;fill-rule:nonzero;stroke:none"
                 d="m 365.127,251.848 h 8.98 v 174.889 h -8.98 z" /><path
                 id="path88"
                 style="fill:#f0f0f0;fill-opacity:1;fill-rule:nonzero;stroke:none"
                 d="m 353.72,251.848 h 8.981 v 174.889 h -8.981 z" /><path
                 id="path90"
                 style="fill:#f0f0f0;fill-opacity:1;fill-rule:nonzero;stroke:none"
                 d="m 342.312,251.848 h 8.981 v 174.889 h -8.981 z" /><path
                 id="path92"
                 style="fill:#f0f0f0;fill-opacity:1;fill-rule:nonzero;stroke:none"
                 d="m 330.905,251.848 h 8.981 v 174.889 h -8.981 z" /><path
                 id="path94"
                 style="fill:#f0f0f0;fill-opacity:1;fill-rule:nonzero;stroke:none"
                 d="m 319.498,251.848 h 8.981 v 174.889 h -8.981 z" /><path
                 id="path96"
                 style="fill:#f0f0f0;fill-opacity:1;fill-rule:nonzero;stroke:none"
                 d="m 308.091,251.848 h 8.98 v 174.889 h -8.98 z" /><path
                 id="path98"
                 style="fill:#f0f0f0;fill-opacity:1;fill-rule:nonzero;stroke:none"
                 d="m 296.684,251.848 h 8.98 v 174.889 h -8.98 z" /><path
                 id="path100"
                 style="fill:#f0f0f0;fill-opacity:1;fill-rule:nonzero;stroke:none"
                 d="m 285.276,251.848 h 8.98 v 174.889 h -8.98 z" /><path
                 id="path102"
                 style="fill:#f0f0f0;fill-opacity:1;fill-rule:nonzero;stroke:none"
                 d="m 273.869,251.848 h 8.98 v 174.889 h -8.98 z" /><path
                 id="path104"
                 style="fill:#f0f0f0;fill-opacity:1;fill-rule:nonzero;stroke:none"
                 d="m 262.461,251.848 h 8.981 v 174.889 h -8.981 z" /><path
                 id="path106"
                 style="fill:#f0f0f0;fill-opacity:1;fill-rule:nonzero;stroke:none"
                 d="m 251.054,251.848 h 8.981 v 174.889 h -8.981 z" /><path
                 id="path108"
                 style="fill:#f0f0f0;fill-opacity:1;fill-rule:nonzero;stroke:none"
                 d="m 239.647,251.848 h 8.981 v 174.889 h -8.981 z" /></g></g></g><path
           id="path114"
           style="fill:#f0f0f0;fill-opacity:1;fill-rule:nonzero;stroke:none"
           d="M 128.25,402.669 H 62.348 V 282.824 h 65.902 z" /><path
           id="path116"
           style="fill:#f5f5f5;fill-opacity:1;fill-rule:nonzero;stroke:none"
           d="M 142.402,402.669 H 66.599 V 282.824 h 75.803 z" /><path
           id="path118"
           style="fill:#ffffff;fill-opacity:1;fill-rule:nonzero;stroke:none"
           d="m 69.691,285.669 h 69.621 V 399.824 H 69.691 Z" /><g
           transform="translate(88.2451,377.1055)"
           id="g120"><path
             id="path122"
             style="fill:#f5f5f5;fill-opacity:1;fill-rule:nonzero;stroke:none"
             d="m 0,0 v -68.717 c 0,-1.524 1.235,-2.76 2.76,-2.76 h 26.992 c 1.524,0 2.76,1.236 2.76,2.76 V 0 c 0,1.523 -1.236,2.76 -2.76,2.76 H 2.76 C 1.235,2.76 0,1.523 0,0" /></g><g
           transform="translate(383.9111,302.7119)"
           id="g124"><path
             id="path126"
             style="fill:#ececec;fill-opacity:1;fill-rule:nonzero;stroke:none"
             d="m 0,0 13.479,-33.223 c -0.388,-96.091 3.954,-101.63 3.994,-118.159 H -16.556 C -17.778,-70.951 -5.856,-89.034 0,0" /></g><g
           transform="translate(402.9062,204.582)"
           id="g128"><path
             id="path130"
             style="fill:#ececec;fill-opacity:1;fill-rule:nonzero;stroke:none"
             d="M 0,0 C -27.389,75.408 -90.444,52.053 -87.621,24.571 -84.798,-2.911 15.752,-43.369 0,0" /></g><g
           transform="translate(392.5532,161.0957)"
           id="g132"><path
             id="path134"
             style="fill:#ececec;fill-opacity:1;fill-rule:nonzero;stroke:none"
             d="M 0,0 C -14.944,48.599 -54.678,40.664 -54.68,18.332 -54.682,-4.001 8.594,-27.95 0,0" /></g><g
           transform="translate(391.4858,248.8164)"
           id="g136"><path
             id="path138"
             style="fill:#ececec;fill-opacity:1;fill-rule:nonzero;stroke:none"
             d="M 0,0 C -23.458,64.959 -81.885,56.021 -77.18,28.614 -72.474,1.207 13.491,-37.36 0,0" /></g><g
           transform="translate(391.6489,277.9541)"
           id="g140"><path
             id="path142"
             style="fill:#ececec;fill-opacity:1;fill-rule:nonzero;stroke:none"
             d="M 0,0 C 2.175,44.259 -41.655,62.475 -38.619,36.025 -35.582,9.576 -1.251,-25.455 0,0" /></g><g
           transform="translate(388.3755,232.6396)"
           id="g144"><path
             id="path146"
             style="fill:#ececec;fill-opacity:1;fill-rule:nonzero;stroke:none"
             d="M 0,0 C 9.255,54.536 65.424,75.282 59.148,44.412 52.873,13.543 -5.323,-31.365 0,0" /></g><g
           transform="translate(383.646,263.4707)"
           id="g148"><path
             id="path150"
             style="fill:#ececec;fill-opacity:1;fill-rule:nonzero;stroke:none"
             d="M 0,0 C -10.908,57.188 39.553,82.601 41.005,55.029 42.457,27.457 6.273,-32.891 0,0" /></g><g
           transform="translate(379.2671,198.8721)"
           id="g152"><path
             id="path154"
             style="fill:#ececec;fill-opacity:1;fill-rule:nonzero;stroke:none"
             d="M 0,0 C 22.294,55.112 70.036,41.436 65.218,16.355 60.4,-8.725 -12.822,-31.697 0,0" /></g><g
           transform="translate(390.27,160.3857)"
           id="g156"><path
             id="path158"
             style="fill:#ececec;fill-opacity:1;fill-rule:nonzero;stroke:none"
             d="M 0,0 C -0.497,35.557 31.776,44.746 32.159,24.149 32.542,3.553 0.286,-20.449 0,0" /></g><g
           transform="translate(380.4141,117.3516)"
           id="g160"><path
             id="path162"
             style="fill:#e1e1e1;fill-opacity:1;fill-rule:nonzero;stroke:none"
             d="m 0,0 v 0 c -17.742,0 -32.71,12.353 -36.351,29.049 -0.963,4.417 -2.06,8.804 -3.789,12.984 l -0.279,0.673 H 40.419 L 40.14,42.033 C 38.411,37.853 37.314,33.466 36.351,29.049 32.71,12.353 17.741,0 0,0" /></g></g></g><g
       id="g164"><g
         clip-path="url(#clipPath170)"
         id="g166"><g
           transform="translate(262.4575,399.2578)"
           id="g172"><path
             id="path174"
             style="fill:#007cff;fill-opacity:1;fill-rule:nonzero;stroke:none"
             d="m 0,0 c -32.8,2.481 -59.421,14.066 -94.714,5.812 -27.666,-6.469 -56.421,-17.407 -77.806,-48.829 -20.376,-29.937 -30.952,-64.7 -18.673,-93.603 12.135,-28.565 42.295,-47.161 69.41,-48.868 14.451,-0.91 29.276,4.916 44.16,8.208 16.416,3.631 30.509,0.975 44.686,-4.625 24.899,-9.837 47.945,-22.196 78.115,-7.4 29.552,14.493 49.571,47.39 69.224,79 17.971,28.905 49.872,65.81 43.008,101.055 -6.493,33.337 -41.745,51.947 -69.499,46.4 C 56.998,30.973 31.451,-2.379 0,0" /></g><g
           id="g176"><g
             id="g178" /><g
             id="g190"><g
               style="opacity:0.89999402"
               id="g188"
               clip-path="url(#clipPath182)"><g
                 id="g186"
                 transform="translate(262.4575,399.2578)"><path
                   id="path184"
                   style="fill:#ffffff;fill-opacity:1;fill-rule:nonzero;stroke:none"
                   d="m 0,0 c -32.8,2.481 -59.421,14.066 -94.714,5.812 -27.666,-6.469 -56.421,-17.407 -77.806,-48.829 -20.376,-29.937 -30.952,-64.7 -18.673,-93.603 12.135,-28.565 42.295,-47.161 69.41,-48.868 14.451,-0.91 29.276,4.916 44.16,8.208 16.416,3.631 30.509,0.975 44.686,-4.625 24.899,-9.837 47.945,-22.196 78.115,-7.4 29.552,14.493 49.571,47.39 69.224,79 17.971,28.905 49.872,65.81 43.008,101.055 -6.493,33.337 -41.745,51.947 -69.499,46.4 C 56.998,30.973 31.451,-2.379 0,0" /></g></g></g></g></g></g><g
       id="g192"><g
         clip-path="url(#clipPath198)"
         id="g194"><g
           transform="translate(443.8892,83.7617)"
           id="g200"><path
             id="path202"
             style="fill:#f5f5f5;fill-opacity:1;fill-rule:nonzero;stroke:none"
             d="m 0,0 c 0,-6.254 -86.807,-11.323 -193.889,-11.323 -107.082,0 -193.889,5.069 -193.889,11.323 0,6.254 86.807,11.323 193.889,11.323 C -86.807,11.323 0,6.254 0,0" /></g></g></g><g
       id="g204"><g
         clip-path="url(#clipPath210)"
         id="g206"><g
           transform="translate(129.3662,286.0596)"
           id="g212"><path
             id="path214"
             style="fill:#007cff;fill-opacity:1;fill-rule:nonzero;stroke:none"
             d="M 0,0 -0.631,0.775 C 1.945,2.869 4.707,4.79 7.576,6.486 L 8.085,5.625 C 5.258,3.954 2.538,2.062 0,0" /></g><g
           transform="translate(108.8345,257.4795)"
           id="g216"><path
             id="path218"
             style="fill:#007cff;fill-opacity:1;fill-rule:nonzero;stroke:none"
             d="m 0,0 -0.937,0.35 c 3.392,9.069 8.812,17.488 15.675,24.348 l 0.707,-0.707 C 8.682,17.231 3.341,8.936 0,0" /></g><g
           transform="translate(302.5737,213.4053)"
           id="g220"><path
             id="path222"
             style="fill:#007cff;fill-opacity:1;fill-rule:nonzero;stroke:none"
             d="m 0,0 c -0.245,29.215 -23.995,52.825 -53.267,52.825 -7.054,0 -13.781,-1.384 -19.942,-3.873 -10.462,21.402 -32.44,36.148 -57.868,36.148 -30.75,0 -56.448,-21.565 -62.838,-50.392 -28.92,-1.86 -51.804,-25.893 -51.804,-55.282 0,-30.604 24.808,-55.412 55.411,-55.412 h 176.321 c 21.693,0 39.279,17.586 39.279,39.28 C 25.292,-19.941 14.785,-5.638 0,0" /></g><g
           transform="translate(262.9097,231.3125)"
           id="g224"><path
             id="path226"
             style="fill:#1a2e35;fill-opacity:1;fill-rule:nonzero;stroke:none"
             d="m 0,0 h -141.1 c -2.383,0 -4.333,1.95 -4.333,4.334 0,2.383 1.95,4.333 4.333,4.333 H 0 c 2.383,0 4.333,-1.95 4.333,-4.333 C 4.333,1.95 2.383,0 0,0" /></g><g
           transform="translate(143.0937,200.835)"
           id="g228"><path
             id="path230"
             style="fill:#ffffff;fill-opacity:1;fill-rule:nonzero;stroke:none"
             d="m 0,0 c -7.477,0 -13.56,-6.083 -13.56,-13.561 0,-7.476 6.083,-13.559 13.56,-13.559 h 98.533 c 7.477,0 13.56,6.083 13.56,13.56 0,7.477 -6.083,13.56 -13.56,13.56 z M 98.533,-28.12 H 0 c -8.028,0 -14.56,6.531 -14.56,14.559 C -14.56,-5.532 -8.028,1 0,1 h 98.533 c 8.028,0 14.56,-6.531 14.56,-14.56 0,-8.028 -6.532,-14.56 -14.56,-14.56" /></g><g
           transform="translate(166.1064,176.2148)"
           id="g232"><path
             id="path234"
             style="fill:#ffffff;fill-opacity:1;fill-rule:nonzero;stroke:none"
             d="m 0,0 h -23.013 c -6.083,0 -11.06,4.977 -11.06,11.06 0,6.084 4.977,11.06 11.06,11.06 H 0 c 6.083,0 11.06,-4.976 11.06,-11.06 C 11.06,4.977 6.083,0 0,0" /></g><g
           transform="translate(266.9395,315.3721)"
           id="g236"><path
             id="path238"
             style="fill:#007cff;fill-opacity:1;fill-rule:nonzero;stroke:none"
             d="m 0,0 -18.707,-79.726 h -111.621 l 31.22,133.055 77.291,-18.135 z" /></g><g
           id="g240"><g
             id="g242" /><g
             id="g254"><g
               style="opacity:0.80000299"
               id="g252"
               clip-path="url(#clipPath246)"><g
                 id="g250"
                 transform="translate(266.9395,315.3721)"><path
                   id="path248"
                   style="fill:#fafafa;fill-opacity:1;fill-rule:nonzero;stroke:none"
                   d="m 0,0 -18.707,-79.726 h -111.621 l 31.22,133.055 77.291,-18.135 z" /></g></g></g></g><g
           transform="translate(252.3799,300.5527)"
           id="g256"><path
             id="path258"
             style="fill:#007cff;fill-opacity:1;fill-rule:nonzero;stroke:none"
             d="m 0,0 -84.783,19.893 c -1.216,0.285 -1.976,1.513 -1.691,2.728 0.285,1.216 1.513,1.977 2.728,1.691 L 1.037,4.42 C 2.252,4.135 3.014,2.907 2.729,1.691 2.443,0.476 1.215,-0.285 0,0" /></g><g
           transform="translate(249.1421,286.7539)"
           id="g260"><path
             id="path262"
             style="fill:#007cff;fill-opacity:1;fill-rule:nonzero;stroke:none"
             d="m 0,0 -84.783,19.894 c -1.215,0.285 -1.976,1.512 -1.691,2.728 0.285,1.215 1.513,1.977 2.728,1.691 L 1.037,4.42 C 2.253,4.135 3.014,2.907 2.729,1.691 2.443,0.477 1.216,-0.285 0,0" /></g><g
           transform="translate(245.9048,272.9561)"
           id="g264"><path
             id="path266"
             style="fill:#007cff;fill-opacity:1;fill-rule:nonzero;stroke:none"
             d="m 0,0 -84.783,19.893 c -1.216,0.285 -1.977,1.512 -1.692,2.728 0.286,1.216 1.514,1.977 2.729,1.691 L 1.037,4.42 C 2.252,4.135 3.014,2.906 2.729,1.691 2.443,0.476 1.215,-0.285 0,0" /></g><g
           transform="translate(242.667,259.1572)"
           id="g268"><path
             id="path270"
             style="fill:#007cff;fill-opacity:1;fill-rule:nonzero;stroke:none"
             d="m 0,0 -84.783,19.893 c -1.215,0.285 -1.976,1.513 -1.691,2.728 0.285,1.216 1.513,1.977 2.728,1.691 L 1.037,4.42 C 2.253,4.135 3.014,2.907 2.729,1.691 2.443,0.476 1.216,-0.285 0,0" /></g><g
           transform="translate(205.7236,253.2676)"
           id="g272"><path
             id="path274"
             style="fill:#007cff;fill-opacity:1;fill-rule:nonzero;stroke:none"
             d="m 0,0 -51.077,11.984 c -1.215,0.286 -1.977,1.513 -1.692,2.729 0.286,1.215 1.514,1.976 2.729,1.691 L 1.037,4.42 C 2.252,4.135 3.014,2.906 2.729,1.691 H 2.728 C 2.443,0.476 1.215,-0.285 0,0" /></g><g
           transform="translate(266.9395,315.3721)"
           id="g276"><path
             id="path278"
             style="fill:#007cff;fill-opacity:1;fill-rule:nonzero;stroke:none"
             d="m 0,0 -28.506,6.688 6.689,28.506 z" /></g></g></g><g
       transform="translate(286.7969,213.5264)"
       id="g280"><path
         id="path282"
         style="fill:#1a2e35;fill-opacity:1;fill-rule:nonzero;stroke:none"
         d="m 0,0 3.363,22.12 h 60.38 L 60.379,0 Z M 56.388,-26.252 H -3.991 l 3.363,22.121 H 59.751 Z M 52.397,-52.503 H -7.982 l 3.363,22.121 H 55.76 Z m -3.991,-26.251 h -60.379 l 3.363,22.121 h 60.38 z m -3.991,-26.251 h -60.379 l 3.362,22.12 h 60.38 z M -0.707,26.141 -24.409,-129.765 h 4.68 l 3.137,20.629 h 60.379 l -3.136,-20.629 h 4.681 L 69.035,26.141 Z" /></g><g
       transform="translate(320.4546,108.5215)"
       id="g284"><path
         id="path286"
         style="fill:#1a2e35;fill-opacity:1;fill-rule:nonzero;stroke:none"
         d="m 0,0 -3.363,22.121 h 60.38 L 60.38,0 Z m -7.354,48.372 h 60.379 l 3.364,-22.121 h -60.38 z m -3.991,26.251 h 60.38 L 52.397,52.502 H -7.982 Z m -3.991,26.251 h 60.379 l 3.364,-22.121 h -60.38 z m -3.991,26.251 h 60.379 l 3.364,-22.12 h -60.38 z m 64.449,4.021 H -24.619 L -0.917,-24.76 H 3.764 L 0.628,-4.131 h 60.38 l 3.136,-20.629 h 4.681 z" /></g><g
       id="g288"><g
         clip-path="url(#clipPath294)"
         id="g290"><g
           id="g296"><g
             id="g298" /><g
             id="g310"><g
               style="opacity:0.39999402"
               id="g308"
               clip-path="url(#clipPath302)"><g
                 id="g306"
                 transform="translate(320.4546,108.5215)"><path
                   id="path304"
                   style="fill:#ffffff;fill-opacity:1;fill-rule:nonzero;stroke:none"
                   d="m 0,0 -3.363,22.121 h 60.38 L 60.38,0 Z m -7.354,48.372 h 60.379 l 3.364,-22.121 h -60.38 z m -3.991,26.251 h 60.38 L 52.397,52.502 H -7.982 Z m -3.991,26.251 h 60.379 l 3.364,-22.121 h -60.38 z m -3.991,26.251 h 60.379 l 3.364,-22.12 h -60.38 z m 64.449,4.021 H -24.619 L -0.917,-24.76 H 3.764 L 0.628,-4.131 h 60.38 l 3.136,-20.629 h 4.681 z" /></g></g></g></g><g
           transform="translate(335.6963,391.4229)"
           id="g312"><path
             id="path314"
             style="fill:#913c38;fill-opacity:1;fill-rule:nonzero;stroke:none"
             d="m 0,0 c 2,-1.542 3.761,-3.086 5.587,-4.682 1.812,-1.584 3.557,-3.242 5.28,-4.935 3.436,-3.392 6.719,-6.992 9.761,-10.915 l 1.117,-1.509 0.555,-0.755 c 0.316,-0.439 0.621,-0.926 0.855,-1.388 0.962,-1.88 1.253,-3.622 1.375,-5.177 0.211,-3.113 -0.259,-5.737 -0.845,-8.255 -1.246,-5.011 -3.134,-9.439 -5.539,-13.799 l -5.11,2.079 c 0.966,4.352 1.84,8.909 2.171,13.117 0.155,2.086 0.142,4.164 -0.18,5.706 -0.16,0.758 -0.431,1.332 -0.596,1.507 -0.044,0.053 -0.067,0.051 -0.1,0.08 l -0.538,0.615 -1.075,1.228 c -2.961,3.244 -6.164,6.396 -9.503,9.445 -3.303,3.046 -6.797,6.098 -10.159,8.933 z" /></g><g
           transform="translate(350.7554,344.1543)"
           id="g316"><path
             id="path318"
             style="fill:#913c38;fill-opacity:1;fill-rule:nonzero;stroke:none"
             d="m 0,0 -5.742,-3.959 7.037,-4.239 c 0,0 3.609,3.455 2.061,6.659 z" /></g><g
           transform="translate(342.1523,333.583)"
           id="g320"><path
             id="path322"
             style="fill:#913c38;fill-opacity:1;fill-rule:nonzero;stroke:none"
             d="M 0,0 5.299,-2.975 9.898,2.373 2.861,6.612 Z" /></g><g
           transform="translate(296.5459,412.3174)"
           id="g324"><path
             id="path326"
             style="fill:#1a2e35;fill-opacity:1;fill-rule:nonzero;stroke:none"
             d="m 0,0 c 0.166,-0.647 -0.042,-1.259 -0.465,-1.367 -0.423,-0.109 -0.9,0.328 -1.066,0.974 -0.166,0.647 0.043,1.259 0.466,1.368 C -0.643,1.083 -0.166,0.646 0,0" /></g><g
           transform="translate(296.5625,411.0732)"
           id="g328"><path
             id="path330"
             style="fill:#740606;fill-opacity:1;fill-rule:nonzero;stroke:none"
             d="m 0,0 c 0,0 -0.514,-4.107 -1.672,-6.322 1.418,-0.775 3.238,0.212 3.238,0.212 z" /></g><g
           transform="translate(297.9189,416.4873)"
           id="g332"><path
             id="path334"
             style="fill:#1a2e35;fill-opacity:1;fill-rule:nonzero;stroke:none"
             d="m 0,0 c -0.077,-0.02 -0.16,-0.016 -0.24,0.016 -1.628,0.637 -2.813,-0.188 -2.825,-0.197 -0.176,-0.125 -0.421,-0.085 -0.547,0.092 -0.126,0.176 -0.085,0.421 0.091,0.547 0.063,0.044 1.547,1.079 3.567,0.287 C 0.248,0.666 0.347,0.438 0.268,0.237 0.22,0.115 0.118,0.03 0,0" /></g><g
           transform="translate(317.0503,410.5029)"
           id="g336"><path
             id="path338"
             style="fill:#913c38;fill-opacity:1;fill-rule:nonzero;stroke:none"
             d="m 0,0 c 0.934,-6.1 2.243,-15.449 7.597,-17.816 0,0 0.523,-6.34 -10.064,-10.15 -11.64,-4.189 -7.642,3.777 -7.642,3.777 5.806,3.803 3.946,8.458 1.247,12.487 z" /></g><g
           transform="translate(325.6484,393.958)"
           id="g340"><path
             id="path342"
             style="fill:#1a2e35;fill-opacity:1;fill-rule:nonzero;stroke:none"
             d="m 0,0 c 0.032,1.913 -1.952,5.22 -3.92,4.997 -2.166,-0.244 -10.449,-3.295 -13.469,-6.085 -3.02,-2.79 -0.877,-7.683 -0.877,-7.683 z" /></g><g
           transform="translate(387.8574,163.1133)"
           id="g344"><path
             id="path346"
             style="fill:#007cff;fill-opacity:1;fill-rule:nonzero;stroke:none"
             d="M 0,0 C -0.053,-0.056 -0.098,-0.112 -0.133,-0.17 -0.211,-0.302 -0.229,-0.431 -0.187,-0.564 -0.091,-0.876 0.06,-0.894 0.109,-0.899 0.624,-0.96 1.672,0.113 2.303,1.03 1.583,0.847 0.464,0.479 0,0 M 1.646,-0.313 C 1.122,-0.855 0.531,-1.299 0.069,-1.245 -0.125,-1.223 -0.385,-1.104 -0.52,-0.666 -0.591,-0.437 -0.562,-0.21 -0.432,0.008 0.133,0.956 2.542,1.446 2.645,1.467 2.712,1.479 2.781,1.452 2.821,1.396 2.861,1.341 2.864,1.267 2.829,1.208 2.632,0.874 2.172,0.231 1.646,-0.313" /></g><g
           transform="translate(387.4907,165.2939)"
           id="g348"><path
             id="path350"
             style="fill:#007cff;fill-opacity:1;fill-rule:nonzero;stroke:none"
             d="M 0,0 C -0.018,-0.019 -0.035,-0.039 -0.052,-0.061 -0.189,-0.242 -0.128,-0.328 -0.102,-0.365 0.182,-0.768 1.707,-0.94 2.645,-0.796 2.14,-0.428 1.088,0.263 0.387,0.181 0.227,0.162 0.099,0.103 0,0 m 3.171,-1.006 c -0.02,-0.02 -0.045,-0.036 -0.073,-0.045 -0.825,-0.26 -3.004,-0.196 -3.485,0.485 -0.087,0.124 -0.195,0.38 0.058,0.715 0.163,0.217 0.391,0.344 0.676,0.377 1.094,0.129 2.74,-1.219 2.809,-1.277 0.05,-0.04 0.073,-0.104 0.06,-0.167 C 3.21,-0.952 3.194,-0.982 3.171,-1.006" /></g><g
           transform="translate(327.8462,143.3213)"
           id="g352"><path
             id="path354"
             style="fill:#007cff;fill-opacity:1;fill-rule:nonzero;stroke:none"
             d="M 0,0 C -0.122,0 -0.235,-0.012 -0.336,-0.04 -0.497,-0.083 -0.608,-0.163 -0.677,-0.283 -0.8,-0.499 -0.755,-0.606 -0.711,-0.668 -0.369,-1.143 1.488,-1.153 2.854,-0.96 2.173,-0.611 0.859,0 0,0 m 1.165,-1.425 c -0.943,0 -1.853,0.13 -2.158,0.554 -0.107,0.148 -0.192,0.4 0.014,0.761 0.115,0.201 0.301,0.339 0.552,0.406 1.221,0.333 3.789,-1.13 3.898,-1.192 C 3.534,-0.933 3.568,-1.004 3.556,-1.075 3.544,-1.147 3.49,-1.204 3.418,-1.218 2.95,-1.312 2.043,-1.425 1.165,-1.425" /></g><g
           transform="translate(329.4385,145.0781)"
           id="g356"><path
             id="path358"
             style="fill:#007cff;fill-opacity:1;fill-rule:nonzero;stroke:none"
             d="M 0,0 C -0.034,0 -0.069,-0.002 -0.104,-0.006 -0.417,-0.037 -0.437,-0.161 -0.444,-0.201 -0.525,-0.7 0.669,-1.948 1.574,-2.492 1.479,-1.914 1.217,-0.73 0.604,-0.227 0.419,-0.075 0.221,0 0,0 m 1.792,-2.979 c -0.024,0 -0.048,0.005 -0.071,0.016 -0.887,0.398 -2.643,1.986 -2.509,2.817 0.032,0.195 0.17,0.438 0.648,0.487 C 0.215,0.376 0.54,0.276 0.825,0.042 1.76,-0.726 1.958,-2.704 1.965,-2.788 1.971,-2.85 1.944,-2.909 1.894,-2.945 1.864,-2.968 1.828,-2.979 1.792,-2.979" /></g><g
           transform="translate(339.3086,142.2734)"
           id="g360"><path
             id="path362"
             style="fill:#913c38;fill-opacity:1;fill-rule:nonzero;stroke:none"
             d="m 0,0 h -7.346 l -0.732,17.013 h 7.347 z" /></g><g
           transform="translate(398.1748,167.1934)"
           id="g364"><path
             id="path366"
             style="fill:#913c38;fill-opacity:1;fill-rule:nonzero;stroke:none"
             d="m 0,0 -6.799,-2.473 -8.637,15.241 6.799,2.472 z" /></g><g
           transform="translate(390.3062,165.3945)"
           id="g368"><path
             id="path370"
             style="fill:#1a2e35;fill-opacity:1;fill-rule:nonzero;stroke:none"
             d="m 0,0 5.739,5.931 c 0.209,0.215 0.54,0.257 0.796,0.1 l 5.702,-3.498 c 0.591,-0.362 0.681,-1.191 0.19,-1.68 -2.039,-2.038 -3.134,-2.925 -5.657,-5.534 -1.553,-1.604 -6.174,-7.045 -8.318,-9.26 -2.098,-2.167 -4.616,-0.385 -3.936,0.714 3.046,4.929 4.89,9.621 4.98,12.056 C -0.488,-0.732 -0.306,-0.315 0,0" /></g><g
           transform="translate(332.0107,143.124)"
           id="g372"><path
             id="path374"
             style="fill:#1a2e35;fill-opacity:1;fill-rule:nonzero;stroke:none"
             d="m 0,0 h 8.023 c 0.3,0 0.56,-0.208 0.625,-0.501 l 1.451,-6.53 C 10.25,-7.708 9.736,-8.35 9.042,-8.338 c -2.894,0.049 -7.075,0.219 -10.713,0.219 -4.253,0 -6.111,-0.233 -11.099,-0.233 -3.016,0 -3.853,3.05 -2.59,3.326 5.746,1.257 8.624,1.392 13.59,4.454 C -1.23,-0.239 -0.634,0 0,0" /></g><g
           transform="translate(312.0532,376.8301)"
           id="g376"><path
             id="path378"
             style="fill:#913c38;fill-opacity:1;fill-rule:nonzero;stroke:none"
             d="m 0,0 c -1.129,-2.847 -2.329,-5.505 -3.572,-8.22 -1.229,-2.704 -2.559,-5.364 -3.924,-8.018 -2.781,-5.293 -5.751,-10.502 -9.447,-15.564 -0.932,-1.261 -1.931,-2.511 -3.029,-3.748 -0.549,-0.627 -1.112,-1.213 -1.768,-1.863 -0.862,-0.817 -1.689,-1.407 -2.488,-1.919 -1.605,-1.01 -3.124,-1.672 -4.628,-2.291 -1.499,-0.611 -2.985,-1.106 -4.467,-1.547 -5.922,-1.742 -11.745,-2.749 -17.754,-3.303 l -1.119,5.402 c 5.349,1.936 10.794,3.938 15.803,6.183 1.244,0.574 2.457,1.167 3.598,1.777 1.128,0.609 2.21,1.275 3.004,1.913 0.4,0.31 0.722,0.62 0.89,0.83 0.346,0.403 0.77,0.887 1.146,1.382 0.774,0.987 1.533,2.058 2.261,3.185 1.487,2.225 2.871,4.634 4.203,7.081 1.345,2.449 2.624,4.964 3.871,7.505 2.486,5.065 4.896,10.319 7.119,15.444 z" /></g><g
           transform="translate(328.8179,395.8076)"
           id="g380"><path
             id="path382"
             style="fill:#007cff;fill-opacity:1;fill-rule:nonzero;stroke:none"
             d="m 0,0 c 10.546,0.824 20.005,-14.808 20.005,-14.808 l -7.577,-12.298 c 0,0 -8.122,2.985 -14.981,8.931 C -9.739,-11.943 -7.201,-0.563 0,0" /></g><g
           id="g384"><g
             id="g386" /><g
             id="g398"><g
               style="opacity:0.30000299"
               id="g396"
               clip-path="url(#clipPath390)"><g
                 id="g394"
                 transform="translate(328.1626,382.6387)"><path
                   id="path392"
                   style="fill:#000000;fill-opacity:1;fill-rule:nonzero;stroke:none"
                   d="m 0,0 11.087,-14.931 -0.501,-0.612 c 0,0 -3.815,3.036 -8.234,7.345 z" /></g></g></g></g><g
           transform="translate(299.5854,384.1592)"
           id="g400"><path
             id="path402"
             style="fill:#007cff;fill-opacity:1;fill-rule:nonzero;stroke:none"
             d="m 0,0 c -0.585,-5.149 8.035,-27.926 10.026,-54.951 l 39.104,3.849 C 48.854,-45.917 45.99,-24.13 40.816,0.532 39.39,7.333 34.114,12.575 27.304,11.197 L 27.115,11.159 C 22.191,10.147 15.11,8.498 10.935,7.012 7.388,5.75 4.078,4.13 2.172,3.137 0.971,2.511 0.153,1.345 0,0" /></g><g
           id="g404"><g
             id="g406" /><g
             id="g418"><g
               style="opacity:0.30000299"
               id="g416"
               clip-path="url(#clipPath410)"><g
                 id="g414"
                 transform="translate(303.5483,365.2412)"><path
                   id="path412"
                   style="fill:#000000;fill-opacity:1;fill-rule:nonzero;stroke:none"
                   d="M 0,0 C 0.66,-2.75 1.35,-5.73 2.03,-8.9 7.979,-7.491 6.832,5.7 6.952,5.87 Z" /></g></g></g></g><g
           transform="translate(312.3335,381.6113)"
           id="g420"><path
             id="path422"
             style="fill:#007cff;fill-opacity:1;fill-rule:nonzero;stroke:none"
             d="m 0,0 c 3.002,-10.289 -8.107,-24.02 -8.107,-24.02 l -11.181,7.202 c 0,0 -0.075,9.422 3.496,16.79 C -11.267,9.307 -2.142,7.337 0,0" /></g><g
           transform="translate(260.0415,336.7061)"
           id="g424"><path
             id="path426"
             style="fill:#913c38;fill-opacity:1;fill-rule:nonzero;stroke:none"
             d="m 0,0 -4.488,0.614 0.066,-9.384 c 0,0 6.051,-0.614 9.412,3.549 L 4.325,-3.452 C 3.627,-1.595 1.966,-0.269 0,0" /></g><g
           transform="translate(247.8354,335.1523)"
           id="g428"><path
             id="path430"
             style="fill:#913c38;fill-opacity:1;fill-rule:nonzero;stroke:none"
             d="M 0,0 2.877,-7.639 7.784,-7.216 7.718,2.168 Z" /></g><g
           id="g432"><g
             id="g434" /><g
             id="g446"><g
               style="opacity:0.19999701"
               id="g444"
               clip-path="url(#clipPath438)"><g
                 id="g442"
                 transform="translate(331.2324,159.2812)"><path
                   id="path440"
                   style="fill:#000000;fill-opacity:1;fill-rule:nonzero;stroke:none"
                   d="M 0,0 0.41,-9.564 H 7.759 L 7.349,0 Z" /></g></g></g></g><g
           id="g448"><g
             id="g450" /><g
             id="g462"><g
               style="opacity:0.19999701"
               id="g460"
               clip-path="url(#clipPath454)"><g
                 id="g458"
                 transform="translate(389.542,182.4297)"><path
                   id="path456"
                   style="fill:#000000;fill-opacity:1;fill-rule:nonzero;stroke:none"
                   d="m 0,0 -6.802,-2.473 4.785,-8.436 6.473,3.055 z" /></g></g></g></g><g
           transform="translate(317.7642,419.2158)"
           id="g464"><path
             id="path466"
             style="fill:#913c38;fill-opacity:1;fill-rule:nonzero;stroke:none"
             d="m 0,0 c 1.548,-8.067 2.864,-12.71 -0.103,-17.814 -4.462,-7.679 -15.198,-6.554 -19.125,0.887 -3.535,6.699 -5.472,18.767 1.492,23.92 C -10.875,12.069 -1.548,8.067 0,0" /></g><g
           transform="translate(304.1665,413.833)"
           id="g468"><path
             id="path470"
             style="fill:#1a2e35;fill-opacity:1;fill-rule:nonzero;stroke:none"
             d="M 0,0 C -4.917,-2.458 -5.026,5.396 -4.609,7.063 -6.458,5.292 -8.958,3.5 -13.5,5.459 c -5.58,2.405 -4,8.708 0,8.625 0,0 -2.963,5.704 3.567,6.305 3.634,0.334 7.933,-1.222 7.933,-1.222 0,0 2.434,6.365 8.351,3.282 C 9.487,20.815 11.98,16 11.98,16 c 0,0 12.751,-1.889 5.834,-8.556 C 19.382,4.028 18.549,-7.1 14.5,-11.859 12.73,-13.938 -2.417,-13.333 0,0" /></g><g
           transform="translate(313.9424,426.583)"
           id="g472"><path
             id="path474"
             style="fill:#1a2e35;fill-opacity:1;fill-rule:nonzero;stroke:none"
             d="M 0,0 C 0,0 2.308,3.185 2.494,10.543 7.889,4.683 0,0 0,0" /></g><g
           transform="translate(306.5586,414.2842)"
           id="g476"><path
             id="path478"
             style="fill:#913c38;fill-opacity:1;fill-rule:nonzero;stroke:none"
             d="m 0,0 c 0.181,-2.144 -0.516,-4.286 -1.514,-5.767 -1.5,-2.225 -3.541,-1.271 -4.205,1.08 -0.597,2.115 -0.536,5.823 1.49,7.224 C -2.233,3.917 -0.207,2.452 0,0" /></g><g
           transform="translate(323.4834,330.5742)"
           id="g480"><path
             id="path482"
             style="fill:#1a2e35;fill-opacity:1;fill-rule:nonzero;stroke:none"
             d="M 0,0 C 0,0 13.797,-55.056 20.413,-75.539 27.658,-97.97 59.078,-156.8 59.078,-156.8 l 12.333,5.362 c 0,0 -23.78,53.566 -28.86,75.981 -5.514,24.327 -17.319,77.94 -17.319,77.94 z" /></g><g
           transform="translate(378.9102,177.8262)"
           id="g484"><path
             id="path486"
             style="fill:#007cff;fill-opacity:1;fill-rule:nonzero;stroke:none"
             d="M 0,0 C -0.052,-0.023 4.04,-5.784 4.04,-5.784 L 17.885,0.337 15.087,6.062 Z" /></g><g
           id="g488"><g
             id="g490" /><g
             id="g502"><g
               style="opacity:0.30000299"
               id="g500"
               clip-path="url(#clipPath494)"><g
                 id="g498"
                 transform="translate(330.687,311.1826)"><path
                   id="path496"
                   style="fill:#000000;fill-opacity:1;fill-rule:nonzero;stroke:none"
                   d="M 0,0 C 9.779,-0.936 12.286,-36.813 12.943,-55.328 8.896,-42.593 2.381,-17.963 -2.134,-0.471 -1.529,-0.09 -0.822,0.08 0,0" /></g></g></g></g><g
           transform="translate(309.6118,329.208)"
           id="g504"><path
             id="path506"
             style="fill:#1a2e35;fill-opacity:1;fill-rule:nonzero;stroke:none"
             d="m 0,0 c 0,0 1.587,-56.519 4.577,-78.735 3.11,-23.109 14.611,-97.028 14.611,-97.028 h 12.446 c 0,0 -2.874,74.625 -4.565,97.454 -1.844,24.889 -1.364,80.84 -1.364,80.84 z" /></g><g
           transform="translate(326.3247,159.2822)"
           id="g508"><path
             id="path510"
             style="fill:#007cff;fill-opacity:1;fill-rule:nonzero;stroke:none"
             d="m 0,0 c -0.057,-0.002 0.988,-7.533 0.988,-7.533 l 15.129,0.52 0.143,7.017 z" /></g></g></g></g></svg>