<svg xmlns="http://www.w3.org/2000/svg" viewBox="0 0 720.48718 412.4554"><defs><style>.cls-1{fill:#fdfdfd;}.cls-2{fill:#efeeec;}.cls-3{fill:#f1f0ef;}.cls-4{fill:#cfcfcc;}.cls-5{fill:#bebdbd;}.cls-6{fill:#a4a3a3;}.cls-7{fill:#fdfdfe;}.cls-8{fill:#f45858;}.cls-9{fill:#6ada80;}.cls-10{fill:#fdd474;}.cls-11{fill:#f6f8fc;}.cls-12{fill:#0593fc;}.cls-13{fill:#6ed5a1;}.cls-14{fill:#0182fc;}.cls-15{fill:#eaf6ff;}.cls-16{fill:#d8ecfe;}.cls-17{fill:#647fa0;}.cls-18{fill:#a2c7f8;}.cls-19{fill:#fff;}.cls-20{fill:#fed402;}.cls-21{fill:#fac600;}.cls-22{fill:#8db3df;}</style></defs><g id="Layer_2" data-name="Layer 2"><g id="Layer_1-2" data-name="Layer 1"><path class="cls-1" d="M652.404,396.08251q34.04165.05128,68.08322.10262v1.61426L710.1479,401.7847a23.13526,23.13526,0,0,0-4.11736-.73871q-345.78795-.04973-691.57584,0a23.178,23.178,0,0,0-4.11874.73772L0,397.79939v-1.61426q34.04115-.051,68.08228-.102,1.35057.01245,2.7004.02562.727.02187,1.45542.04227c77.13871-.2563,154.27732-.64252,231.4162-.71531,39.942-.03769,79.88419.6489,119.82672.71063q112.3837.17364,224.768.00465l1.45482-.043Q651.05393,396.09527,652.404,396.08251Z"/><path class="cls-2" d="M652.40392,396.08251q-1.35.01275-2.69931.02631c.56164-3.67614,1.60982-7.35264,1.61258-11.02993.08631-115.40809-.0608-230.81661.26293-346.22381.03457-12.33235-10.1833-23.77048-23.4643-23.75658q-267.87153.28044-535.7433,0c-13.28281-.01391-23.4999,11.42376-23.46536,23.75539.32317,115.40721.17591,230.81573.26217,346.22381.00275,3.67717,1.05246,7.35357,1.6141,11.03035q-1.35057-.01242-2.70115-.02488c-.514-4.5023-1.47374-9.00424-1.477-13.50694Q66.481,212.03752,66.454,41.49879c-.01687-12.89917,4.16922-22.44409,16.48128-27.3307.28914-.11475.321-.89866.47288-1.37045l553.671,0c.53211.587.95431,1.41575,1.61278,1.72488C648.67641,19.21,653.939,27.017,653.94,38.27333q.01527,173.9654-.05906,347.93076C653.8788,389.49725,652.91785,392.78972,652.40392,396.08251Z"/><path class="cls-3" d="M648.249,396.151q-112.384.01589-224.768-.00465c-39.94253-.06173-79.88475-.74832-119.82672-.71063-77.13888.07279-154.27749.459-231.41571.71568-.51452-7.988-1.471-15.976-1.478-23.96483C70.6624,261.09564,70.808,150.00432,70.53041,38.914A22.49263,22.49263,0,0,1,92.60077,16.72021q267.642.27141,535.28422-.00007a22.4925,22.4925,0,0,1,22.07164,22.19251c-.27757,111.0903-.13207,222.18162-.23025,333.27255C649.71935,380.17423,648.76363,388.16243,648.249,396.151ZM89.18026,368.67745h4.61516q266.46888,0,532.93773.0803c3.73769.002,4.90494-.871,4.90087-4.83875q-.1608-158.174-.09353-316.34828c-.00014-1.54952-.1263-3.099-.19253-4.62274H89.18026ZM355.02108,28.73129c.79657,3.76035,2.63349,5.40471,4.9558,4.87092,1.53661-.35319,3.8348-2.80141,3.6603-3.9881-.2414-1.64168-2.36939-3.96589-3.91048-4.15686C358.31022,25.28171,356.60122,27.54335,355.02108,28.73129Z"/><path class="cls-4" d="M55.65139,411.43759c-10.14745-1.58544-20.34536-2.90371-30.42118-4.86843-5.079-.99037-9.93656-3.153-14.89425-4.78549a23.178,23.178,0,0,1,4.11874-.73772q345.78791-.04967,691.57584,0a23.13526,23.13526,0,0,1,4.11736.73871c-7.65815,2.17192-15.24983,4.64207-22.99487,6.42412-6.54244,1.50537-13.26267,2.213-19.90422,3.27368l-3.14656.12749q-3.9699.38835-7.93975.77678-3.16264-.06284-6.32523-.12576-3.1809.06808-6.36174.13621-1.63533.01685-3.27064.03365-1.136.00361-2.272.00719l-1.71051.00941q-1.91881.004-3.83766.00793c-1.58344-.05789-3.16684-.16644-4.75028-.16646q-259.62271-.004-519.24537.00916-18.05256.00074-36.10511.03323Q63.96767,411.88445,55.65139,411.43759Z"/><path class="cls-4" d="M648.249,396.151c.51461-7.98858,1.47033-15.97678,1.47736-23.96581.09818-111.09093-.04732-222.18225.23025-333.27255A22.4925,22.4925,0,0,0,627.885,16.72014q-267.64194.27157-535.28422.00007A22.49263,22.49263,0,0,0,70.53041,38.914c.27761,111.09029.132,222.18161.23016,333.27255.00706,7.98883.9635,15.97679,1.478,23.9648q-.72881-.02129-1.45591-.04261c-.56089-3.67752-1.6106-7.35392-1.61335-11.03109-.08626-115.40808.061-230.8166-.26217-346.22381-.03454-12.33163,10.18255-23.7693,23.46536-23.75539q267.8715.2805,535.7433,0c13.281-.0139,23.49887,11.42423,23.4643,23.75658-.32373,115.4072-.17662,230.81572-.26293,346.22381-.00276,3.67729-1.05094,7.35379-1.61258,11.02993Q648.976,396.12913,648.249,396.151Z"/><path class="cls-5" d="M89.18026,368.67745V42.948H631.348c.06623,1.52371.19239,3.07322.19253,4.62274q.01383,158.17419.09353,316.34828c.00407,3.9677-1.16318,4.8407-4.90087,4.83875q-266.46877-.1381-532.93773-.0803Zm540.75386-2.43275q-.00815-130.928-.02075-261.856c-.00024-1.74681-.06778-3.49362-.10395-5.24043q-.00008-15.72664-.00019-31.45329v-23.114H90.84343V67.70982c-.06635,1.6088-.19049,3.21758-.19071,4.82638q-.01373,102.23346-.01094,204.46692-.00838,44.56152-.08759,89.1253a20.79655,20.79655,0,0,0,4.38444.964q32.95919.09687,65.9188.04936,232.50617-.002,465.01232-.04237A19.84523,19.84523,0,0,0,629.93412,366.2447Z"/><path class="cls-6" d="M355.02108,28.73129c1.58014-1.18794,3.28914-3.44958,4.70562-3.274,1.54109.191,3.66908,2.51518,3.91048,4.15686.1745,1.18669-2.12369,3.63491-3.6603,3.9881C357.65457,34.136,355.81765,32.49164,355.02108,28.73129Z"/><path class="cls-6" d="M618.0067,366.19216q5.96361.02668,11.92732.05294a19.86838,19.86838,0,0,1-4.06427.85427q-232.50613.06167-465.01232.04237-32.95947.00025-65.9188-.04936a20.73235,20.73235,0,0,1-4.38464-.96512q7.183.1003,14.36593.20292l2.56127-.1494,7.24171-.1486q1.01007.14328,2.02015.28652,5.9673-.00189,11.93463-.0037,1.325-.1378,2.65-.27568l6.65291.02919,2.7565.17077q5.92542.046,11.85031.092,1.02186-.18393,2.04162-.3659,3.93138-.0357,7.869-.0754l2.00412.39223q8.30223-.04444,16.60444-.08916,7.15748-.00689,14.315-.01286c1.1888.04833,2.37763.13828,3.56645.1384q98.49661.01012,196.99322.0002c1.18912-.00012,2.37826-.08734,3.56743-.1336q3.58544.00669,7.1708.01273,1.97888-.00007,3.95775-.00012,1.99655.00114,3.9931.00232c1.05705.04152,2.1141.11934,3.17115.11943q98.49739.00858,196.99478-.00046C615.893,366.319,616.94989,366.23628,618.0067,366.19216Z"/><path class="cls-7" d="M414.6703,366.2001l-.01091-26.51224c5.0261-.00955,10.05356.05195,15.07791-.04884,4.9543-.09942,9.905-.50438,14.858-.51808,5.84616-.01616,11.6929.34056,17.53974.35177,4.26853.00817,8.53678-.30992,12.80663-.428,3.12392-.08635,6.25226-.17311,9.37507-.10187,5.58953.12747,11.17553.49115,16.76463.53244,4.26116.03145,8.52379-.33347,12.78777-.42758q5.25409-.116,10.51255-.00382c8.58469.17744,17.16739.52024,25.75246.58539,4.136.03141,8.27458-.57951,12.41367-.60288,5.59307-.03163,11.18721.28777,16.78183.3325,4.26806.03414,8.53751-.1771,12.80649-.18341,4.95109-.00734,9.90253.07518,14.85338.14964a39.50806,39.50806,0,0,0,5.49315.166c3.7195-.474,5.465.738,5.50546,4.52339.07918,7.39192.02032,14.78542.01862,22.178-1.05681.04385-2.11366.12654-3.17047.12664q-98.49739.00923-196.99478.00046C416.7844,366.31944,415.72735,366.24162,414.6703,366.2001Z"/><path class="cls-8" d="M109.49732,52.11517c-2.67049,1.72069-4.19533,3.47422-5.58006,3.36659-1.2469-.09691-3.43166-2.44332-3.24974-3.42322.2848-1.534,2.08683-3.62735,3.488-3.84015C105.3731,48.03346,106.9258,50.12641,109.49732,52.11517Z"/><path class="cls-9" d="M133.95,52.42677c-2.49578,1.48119-4.07641,3.17845-5.25285,2.92658-1.493-.31965-2.658-2.22125-3.96449-3.44071,1.42446-1.32628,2.71852-3.43375,4.31836-3.70943C130.15258,48.01338,131.67789,50.362,133.95,52.42677Z"/><path class="cls-10" d="M117.26717,47.36633c.89217,1.54783,2.48549,3.11088,2.45333,4.63862-.02545,1.20931-2.28143,3.49423-3.12727,3.31021-1.43231-.31161-3.44822-2.1358-3.52968-3.43358-.09083-1.447,1.7034-3.01609,2.67712-4.53206Z"/><path class="cls-11" d="M406.71945,366.19788q.69205-1.41617,1.38422-2.83233,1.28681,1.41642,2.57358,2.83255Q408.6983,366.19765,406.71945,366.19788Z"/><path class="cls-12" d="M154.41357,66.496h409.063V351.851h-409.063Z"/><path class="cls-13" d="M437.58159,130.107l1,1.58a59.32345,59.32345,0,0,1,59.323,59.324l1.519,1h28.849l1.575-1a91.26748,91.26748,0,0,0-91.267-91.267l-1,1.328v29.035Z"/><path class="cls-14" d="M154.41357,66.496h36.118V351.851h-36.118Z"/><path class="cls-15" d="M563.47658,351.851v-81.39a114.75817,114.75817,0,0,0-74.183-9.491,86.536,86.536,0,0,0-168.24,28.511,87.44776,87.44776,0,0,0,.612,10.152,59.81823,59.81823,0,0,0-53.465,12.101,91.6994,91.6994,0,0,0-113.787-59.533v99.651h409.063Z"/><path class="cls-16" d="M190.53158,351.851V248.788a92.75368,92.75368,0,0,0-9.583-.514,91.56977,91.56977,0,0,0-26.535,3.926v99.652h36.118Z"/><path class="cls-17" d="M190.96557,300.336a5.6642,5.6642,0,0,0,5.664-5.664V123.675a5.66418,5.66418,0,0,0-5.664-5.664h-36.552V300.336Z"/><circle class="cls-18" cx="174.09257" cy="141.83601" r="7.5"/><circle class="cls-18" cx="174.09257" cy="173.83601" r="7.5"/><circle class="cls-18" cx="174.09257" cy="205.83601" r="7.5"/><circle class="cls-18" cx="174.09257" cy="273.83601" r="7.5"/><path class="cls-19" d="M569.97658,365.851h-422.063a7.50017,7.50017,0,0,1-7.5-7.5V59.996a7.50017,7.50017,0,0,1,7.5-7.5h422.063a7.49953,7.49953,0,0,1,7.5,7.5V358.351A7.50018,7.50018,0,0,1,569.97658,365.851Zm-414.563-15h407.063V67.496h-407.063Z"/><path class="cls-20" d="M289.49658,247.555h-48.147a2.99981,2.99981,0,0,1-3-3V196.408a2.99981,2.99981,0,0,1,3-3h48.147a2.99981,2.99981,0,0,1,3,3v48.147A2.99981,2.99981,0,0,1,289.49658,247.555Z"/><path class="cls-21" d="M258.59257,244.555V196.408a2.99981,2.99981,0,0,1,3-3h-20.243a2.99981,2.99981,0,0,0-3,3v48.147a2.99981,2.99981,0,0,0,3,3h20.243A2.99981,2.99981,0,0,1,258.59257,244.555Z"/><path class="cls-21" d="M313.84257,182.653h-67.992a7.5,7.5,0,0,1,0-15h67.992a7.5,7.5,0,0,1,0,15Z"/><path class="cls-21" d="M313.84257,157.929h-67.992a7.5,7.5,0,0,1,0-15h67.992a7.5,7.5,0,0,1,0,15Z"/><path class="cls-21" d="M313.84257,133.205h-67.992a7.5,7.5,0,0,1,0-15h67.992a7.5,7.5,0,1,1,0,15Z"/><path class="cls-18" d="M458.37556,196.701l-39.583,15.394a.99959.99959,0,0,1-1.294-1.294l15.394-39.584a10.00877,10.00877,0,0,1,2.249-3.447L597.38456,5.526a18.867,18.867,0,1,1,26.682,26.682l-162.244,162.244A9.9845,9.9845,0,0,1,458.37556,196.701Z"/><path class="cls-22" d="M453.41359,175.399l163.731-163.731a18.76344,18.76344,0,0,1,8.143-4.791c-.383-.464-.786-.916-1.22-1.35a18.86709,18.86709,0,0,0-26.682,0L435.14058,167.77a9.99937,9.99937,0,0,0-2.249,3.447l-15.394,39.584a.9996.9996,0,0,0,1.294,1.294l23.976-9.324Z"/><path class="cls-19" d="M377.83857,192.011l1.421-1a59.3241,59.3241,0,0,1,59.323-59.324V99.744a91.26748,91.26748,0,0,0-91.267,91.267l1.673,1Z"/><path class="cls-20" d="M497.90556,191.011a59.323,59.323,0,1,1-118.646,0h-31.943a91.267,91.267,0,1,0,182.534,0Z"/></g></g></svg>